<svg width="25" height="38" viewBox="0 0 25 38" fill="none" xmlns="http://www.w3.org/2000/svg">
<path d="M24.6533 4.24824C24.329 3.7516 23.8552 3.73733 23.3153 3.72108C23.2541 3.71924 23.1921 3.71737 23.1294 3.71477C23.0816 3.71257 23.0289 3.71342 22.9738 3.71431C22.7548 3.71782 22.4987 3.72194 22.3697 3.53796C22.2201 3.32467 22.2343 2.91248 22.246 2.57219C22.2497 2.46467 22.2531 2.36426 22.2511 2.27964C22.2301 1.48916 22.1862 0.649471 21.8811 0.368764C21.651 0.158153 20.9626 0.18733 20.3278 0.214239C20.122 0.222962 19.9218 0.231446 19.7447 0.231446H6.23175C5.95968 0.231446 5.67448 0.209292 5.39427 0.187525C4.84824 0.14511 4.32112 0.104162 3.94679 0.231446C3.40354 0.417074 3.36675 1.39251 3.33212 2.31103L3.33025 2.36045C3.30117 3.11872 3.11325 3.70384 2.49045 3.6449C1.76608 3.57746 1.04529 3.55619 0.717778 4.21178C0.330981 4.98746 0.410754 5.79942 0.553638 7.25377C0.574049 7.46151 0.595747 7.68237 0.617557 7.91809H24.8622C24.8761 7.7458 24.8908 7.57571 24.9053 7.40837C25.0189 6.09991 25.1178 4.95986 24.6533 4.24824Z" fill="#8047F8"/>
<path fill-rule="evenodd" clip-rule="evenodd" d="M2.50566 9.36052C2.88431 14.4853 3.25883 19.616 3.63336 24.7467L3.63359 24.7498C3.83694 27.5357 4.0403 30.3215 4.24432 33.1064H5.01791C5.07062 33.5424 5.13094 34.0805 5.19453 34.648C5.32362 35.7998 5.46623 37.0722 5.58613 37.8542H5.67169C6.45966 37.5658 11.907 35.2375 11.9094 25.9677C11.9084 25.9412 11.9093 25.9148 11.912 25.8885H10.5662C10.5011 25.8879 10.4379 25.8662 10.3865 25.8266C10.3351 25.7871 10.2982 25.732 10.2816 25.6697C10.1504 25.3457 10.0447 25.0123 9.96527 24.6723C9.17356 25.1194 8.54485 25.8022 8.16875 26.6233C7.81173 25.7823 7.765 24.8441 8.03672 23.9725C8.30845 23.101 8.88135 22.3515 9.65531 21.8551C9.66528 19.1502 10.6781 16.5427 12.5019 14.5262L12.5304 14.5012C12.5834 14.4553 12.6513 14.4298 12.7216 14.4293C12.7624 14.4296 12.8026 14.4383 12.8397 14.4548C12.8773 14.4715 12.9109 14.4958 12.9384 14.5262C14.7836 16.5454 15.791 19.178 15.7597 21.8989C16.5481 22.3815 17.1327 23.1304 17.4049 24.0067C17.6771 24.883 17.6185 25.8271 17.2399 26.664C16.8659 25.8415 16.2366 25.1582 15.4434 24.7129C15.395 25.0424 15.3057 25.3648 15.1777 25.6728C15.1335 25.8041 15.0449 25.8885 14.9563 25.8885H13.5211C13.5234 25.9043 13.525 25.9201 13.5259 25.9359L13.5265 25.9396V25.9472C13.527 25.9609 13.527 25.9745 13.5265 25.9882C13.5461 35.5242 19.3378 37.6886 19.826 37.8542H19.993C20.0356 37.1031 20.1744 36.0667 20.3097 35.0563C20.4029 34.36 20.4945 33.6761 20.5518 33.1064H21.3343C21.5848 29.5985 21.8424 26.1004 22.1 22.6022L22.1002 22.6003L22.1002 22.5993C22.4298 18.1248 22.7593 13.6501 23.0739 9.15454H2.55577C2.49671 9.16609 2.50074 9.26269 2.50566 9.36052ZM12.7216 14.4293L12.7202 14.4293H12.7233L12.7216 14.4293Z" fill="#8047F8"/>
</svg>
